<svg width="189" height="189" viewBox="0 0 189 189" fill="none" xmlns="http://www.w3.org/2000/svg">
<rect width="189" height="189" fill="black"/>
<path d="M34.4596 78.6214H56.5183L59.4476 117.176H59.6196L80.8196 78.6214H102.878L90.0383 132.704H74.873L86.4183 89.7563H86.2463L61.9476 132.704H49.6263L46.0063 89.7563H45.833L36.701 132.704H21.533L34.4596 78.6214Z" fill="white"/>
<path d="M152.723 97.0281C152.895 91.9506 148.155 89.0731 142.469 89.0731C129.456 89.0731 124.028 100.585 124.028 110.282C124.028 117.931 128.251 122.253 136.524 122.253C144.105 122.253 148.241 119.978 150.653 113.542H139.365L141.864 103.085H167.456L160.305 132.703H150.052L150.395 127.249H150.224C146.517 131.72 142.297 133.841 132.388 133.841C120.667 133.841 108 128.462 108 110.282C108 106.193 110.328 77.4834 142.727 77.4834C158.237 77.4834 168.319 83.6182 167.889 97.0281H152.723Z" fill="white"/>
</svg>
