<svg width="595" height="60" viewBox="0 0 595 60" fill="none" xmlns="http://www.w3.org/2000/svg">
<rect width="595" height="60" fill="black"/>
<path d="M32.5154 17H43.6334L45.1099 36.2479H45.1966L55.8819 17H67L60.5283 44H52.8846L58.7038 22.5589H58.6171L46.37 44H40.1597L38.3351 22.5589H38.2478L33.645 44H26L32.5154 17Z" fill="white"/>
<path d="M79.0251 33.9416H86.2496L85.0535 24.2227H84.9644L79.0251 33.9416ZM82.483 17H90.8151L96 44H87.7125L86.9587 39.1595H75.8346L72.6428 44H64L82.483 17Z" fill="white"/>
<path d="M109.796 28.9488H116.311C119.26 28.9488 121.814 28.1541 121.814 25.2424C121.814 22.9363 119.569 22.4448 117.412 22.4448H111.381L109.796 28.9488ZM104.513 17H119.92C125.642 17 130 18.2464 130 23.9961C130 28.0418 127.755 30.9155 122.825 31.5211V31.5954C125.159 32.0875 126.039 33.486 126.039 36.097C126.039 38.0637 125.907 39.5751 125.907 41.1263C125.907 42.0713 125.907 43.2434 126.391 44H118.16C118.028 43.4699 117.895 42.9789 117.895 42.4488C117.895 41.0503 118.115 39.6131 118.115 37.7986C118.115 35.4147 116.927 34.1683 114.022 34.1683H108.564L106.187 44H98L104.513 17Z" fill="white"/>
<path d="M159.545 23.0505H150L144.682 44H136.227L141.545 23.0505H132L133.455 17H161L159.545 23.0505Z" fill="white"/>
<path d="M164.671 17H173L166.328 44H158L164.671 17Z" fill="white"/>
<path d="M178.511 17H186.859L194.157 34.6604H194.244L198.134 17H206L199.488 44H191.141L183.931 26.3396H183.843L179.866 44H172L178.511 17Z" fill="white"/>
<path d="M230.144 26.0571C230.233 23.4444 227.78 21.9637 224.838 21.9637C218.104 21.9637 215.295 27.8876 215.295 32.8772C215.295 36.8132 217.48 39.0369 221.761 39.0369C225.685 39.0369 227.825 37.8663 229.073 34.5545H223.232L224.525 29.174H237.769L234.068 44.4144H228.762L228.94 41.608H228.851C226.933 43.9083 224.749 45 219.621 45C213.555 45 207 42.2323 207 32.8772C207 30.7729 208.205 16 224.971 16C232.998 16 238.215 19.1567 237.993 26.0571H230.144Z" fill="white"/>
<path d="M251.797 28.9488H258.311C261.26 28.9488 263.814 28.1541 263.814 25.2424C263.814 22.9363 261.569 22.4448 259.411 22.4448H253.382L251.797 28.9488ZM246.514 17H261.92C267.642 17 272 18.2464 272 23.9961C272 28.0418 269.755 30.9155 264.825 31.5211V31.5954C267.159 32.0875 268.039 33.486 268.039 36.097C268.039 38.0637 267.907 39.5751 267.907 41.1263C267.907 42.0713 267.907 43.2434 268.391 44H260.16C260.028 43.4699 259.895 42.9789 259.895 42.4488C259.895 41.0503 260.116 39.6131 260.116 37.7986C260.116 35.4147 258.927 34.1683 256.022 34.1683H250.564L248.187 44H240L246.514 17Z" fill="white"/>
<path d="M284.025 33.9416H291.25L290.054 24.2227H289.964L284.025 33.9416ZM287.483 17H295.815L301 44H292.712L291.959 39.1595H280.835L277.643 44H269L287.483 17Z" fill="white"/>
<path d="M309.703 17H318.296L325.81 34.6604H325.899L329.903 17H338L331.297 44H322.704L315.282 26.3396H315.191L311.098 44H303L309.703 17Z" fill="white"/>
<path d="M346.553 37.9495H351.892C358.884 37.9495 360.924 32.503 360.924 28.9868C360.924 24.5999 358.537 23.0505 354.802 23.0505H350.156L346.553 37.9495ZM343.556 17H355.193C363.138 17 369 20.1007 369 28.4192C369 36.8155 363.138 44 350.851 44H337L343.556 17Z" fill="white"/>
<path d="M377.671 17H386L379.328 44H371L377.671 17Z" fill="white"/>
<path d="M414.596 23.0505H405.38L400.245 44H392.082L397.216 23.0505H388L389.404 17H416L414.596 23.0505Z" fill="white"/>
<path d="M422.061 35.0593C422.061 38.0611 423.924 39.0369 427.738 39.0369C430.987 39.0369 432.331 37.7891 432.331 36.2692C432.331 33.5014 427.652 33.189 424.445 32.1758C420.589 30.9285 417.467 29.0956 417.467 25.0046C417.467 18.6893 423.837 16 430.034 16C436.621 16 442.21 18.1827 441.994 24.9648H433.933C433.933 23.9124 433.544 23.1717 432.85 22.7043C432.114 22.1977 431.031 21.9637 429.6 21.9637C427.607 21.9637 425.528 22.7043 425.528 24.4582C425.528 26.1337 426.827 26.3303 431.16 27.3809C435.407 28.434 440.391 30.4219 440.391 35.8784C440.391 40.8282 435.494 45 426.437 45C419.071 45 413.915 41.6472 414.001 35.0593H422.061Z" fill="white"/>
<path d="M444.682 37H453L451.318 44H443L444.682 37Z" fill="white"/>
<path d="M481.806 26.6011C482.158 24.0294 480.573 21.9637 476.74 21.9637C470.529 21.9637 468.193 28.3176 468.193 32.721C468.193 36.3084 469.383 39.0363 474.009 39.0363C477.445 39.0363 480.088 36.9308 480.66 34.1245H488.854C487.093 41.2582 482.026 45 472.863 45C467.886 45 460 42.7781 460 32.4484C460 23.4836 466.211 16 476.873 16C484.758 16 490.088 19.2744 489.999 26.6011H481.806Z" fill="white"/>
<path d="M506.661 39.0363C512.635 39.0363 515.71 32.8 515.71 28.3942C515.71 24.2634 514.017 21.9631 509.558 21.9631C503.142 21.9631 500.29 28.121 500.29 32.721C500.29 36.3084 502.251 39.0363 506.661 39.0363ZM509.826 16C515.353 16 524 17.7931 524 27.7718C524 37.5532 517.403 45 505.994 45C497.126 45 492 40.4386 492 32.6824C492 23.4444 498.864 16 509.826 16Z" fill="white"/>
<path d="M531.674 17H543.064L544.575 36.2479H544.664L555.611 17H567L560.37 44H552.542L558.503 22.5589H558.413L545.866 44H539.503L537.636 22.5589H537.546L532.831 44H525L531.674 17Z" fill="white"/>
</svg>
