<svg width="1107" height="189" viewBox="0 0 1107 189" fill="none" xmlns="http://www.w3.org/2000/svg">
<rect width="1107" height="189" fill="black"/>
<path d="M38.4596 78.6214H60.5183L63.4476 117.176H63.6196L84.8196 78.6214H106.878L94.0383 132.704H78.873L90.4183 89.7563H90.2463L65.9476 132.704H53.6263L50.0063 89.7563H49.833L40.701 132.704H25.533L38.4596 78.6214Z" fill="white"/>
<path d="M129.434 112.556H143.479L141.154 93.0889H140.98L129.434 112.556ZM136.156 78.6217H152.355L162.435 132.703H146.323L144.858 123.008H123.231L117.026 132.703H100.223L136.156 78.6217Z" fill="white"/>
<path d="M190.167 102.556H202.92C208.693 102.556 213.692 100.964 213.692 95.1315C213.692 90.5123 209.297 89.5277 205.075 89.5277H193.269L190.167 102.556ZM179.825 78.6214H209.985C221.187 78.6214 229.717 81.1179 229.717 92.6349C229.717 100.739 225.323 106.495 215.672 107.708V107.857C220.24 108.843 221.964 111.644 221.964 116.874C221.964 120.813 221.705 123.841 221.705 126.948C221.705 128.841 221.705 131.189 222.652 132.704H206.54C206.281 131.642 206.021 130.659 206.021 129.597C206.021 126.796 206.452 123.917 206.452 120.282C206.452 115.507 204.125 113.011 198.439 113.011H187.755L183.101 132.704H167.075L179.825 78.6214Z" fill="white"/>
<path d="M286.589 90.7407H268.494L258.413 132.704H242.385L252.466 90.7407H234.372L237.129 78.6213H289.346L286.589 90.7407Z" fill="white"/>
<path d="M297.174 78.6214H313.202L300.362 132.704H284.337L297.174 78.6214Z" fill="white"/>
<path d="M324.482 78.6214H340.942L355.332 113.996H355.503L363.172 78.6214H378.683L365.843 132.704H349.384L335.168 97.3292H334.994L327.154 132.704H311.643L324.482 78.6214Z" fill="white"/>
<path d="M425.715 97.0281C425.887 91.9506 421.147 89.0731 415.462 89.0731C402.449 89.0731 397.021 100.585 397.021 110.282C397.021 117.931 401.243 122.253 409.517 122.253C417.098 122.253 421.234 119.978 423.646 113.542H412.358L414.857 103.085H440.449L433.298 132.703H423.045L423.387 127.249H423.217C419.51 131.72 415.29 133.841 405.381 133.841C393.659 133.841 380.993 128.462 380.993 110.282C380.993 106.193 383.321 77.4834 415.719 77.4834C431.23 77.4834 441.311 83.6182 440.882 97.0281H425.715Z" fill="white"/>
<path d="M467.404 102.556H480.157C485.93 102.556 490.929 100.964 490.929 95.1315C490.929 90.5123 486.534 89.5277 482.31 89.5277H470.506L467.404 102.556ZM457.062 78.6214H487.222C498.424 78.6214 506.954 81.1179 506.954 92.6349C506.954 100.739 502.56 106.495 492.908 107.708V107.857C497.477 108.843 499.201 111.644 499.201 116.874C499.201 120.813 498.942 123.841 498.942 126.948C498.942 128.841 498.942 131.189 499.889 132.704H483.776C483.517 131.642 483.257 130.659 483.257 129.597C483.257 126.796 483.689 123.917 483.689 120.282C483.689 115.507 481.362 113.011 475.676 113.011H464.99L460.338 132.704H444.31L457.062 78.6214Z" fill="white"/>
<path d="M531.239 112.556H545.284L542.959 93.0889H542.786L531.239 112.556ZM537.962 78.6217H554.16L564.24 132.703H548.128L546.663 123.008H525.036L518.831 132.703H502.028L537.962 78.6217Z" fill="white"/>
<path d="M581.631 78.6214H598.091L612.482 113.996H612.653L620.322 78.6214H635.831L622.993 132.704H606.534L592.318 97.3292H592.143L584.303 132.704H568.793L581.631 78.6214Z" fill="white"/>
<path d="M653.137 120.584H663.734C677.609 120.584 681.658 109.675 681.658 102.632C681.658 93.8443 676.921 90.7406 669.507 90.7406H660.289L653.137 120.584ZM647.19 78.6212H670.285C686.053 78.6212 697.686 84.8321 697.686 101.495C697.686 118.313 686.053 132.704 661.667 132.704H634.178L647.19 78.6212Z" fill="white"/>
<path d="M713.264 78.6214H729.292L716.452 132.704H700.427L713.264 78.6214Z" fill="white"/>
<path d="M785.811 90.7407H767.716L757.635 132.704H741.608L751.688 90.7407H733.594L736.351 78.6213H788.567L785.811 90.7407Z" fill="white"/>
<path d="M800.273 114.523C800.273 120.356 803.977 122.252 811.563 122.252C818.024 122.252 820.696 119.827 820.696 116.874C820.696 111.495 811.391 110.888 805.013 108.919C797.345 106.495 791.139 102.933 791.139 94.9825C791.139 82.7096 803.805 77.4832 816.128 77.4832C829.227 77.4832 840.343 81.725 839.912 94.9052H823.883C823.883 92.8599 823.108 91.4206 821.729 90.5122C820.264 89.5276 818.111 89.0729 815.265 89.0729C811.303 89.0729 807.168 90.5122 807.168 93.9206C807.168 97.1767 809.751 97.5588 818.368 99.6006C826.813 101.647 836.724 105.51 836.724 116.114C836.724 125.734 826.985 133.841 808.976 133.841C794.327 133.841 784.075 127.325 784.245 114.523H800.273Z" fill="white"/>
<path d="M845.327 119.37H861.096L857.907 132.704H842.139L845.327 119.37Z" fill="white"/>
<path d="M916.408 98.0858C917.096 93.088 913.994 89.0736 906.497 89.0736C894.348 89.0736 889.78 101.422 889.78 109.979C889.78 116.951 892.106 122.252 901.156 122.252C907.877 122.252 913.046 118.16 914.166 112.706H930.193C926.749 126.57 916.837 133.842 898.914 133.842C889.178 133.842 873.753 129.524 873.753 109.449C873.753 92.0273 885.902 77.4839 906.757 77.4839C922.181 77.4839 932.606 83.8472 932.433 98.0858H916.408Z" fill="white"/>
<path d="M966.452 122.252C978.003 122.252 983.947 110.133 983.947 101.571C983.947 93.5429 980.673 89.0725 972.053 89.0725C959.647 89.0725 954.133 101.04 954.133 109.979C954.133 116.951 957.924 122.252 966.452 122.252ZM972.571 77.4841C983.257 77.4841 999.976 80.9687 999.976 100.361C999.976 119.37 987.221 133.842 965.161 133.842C948.015 133.842 938.104 124.977 938.104 109.904C938.104 91.9512 951.375 77.4841 972.571 77.4841Z" fill="white"/>
<path d="M1015.38 78.6214H1037.44L1040.37 117.176H1040.54L1061.74 78.6214H1083.8L1070.96 132.704H1055.8L1067.34 89.7563H1067.17L1042.87 132.704H1030.55L1026.93 89.7563H1026.75L1017.62 132.704H1002.46L1015.38 78.6214Z" fill="white"/>
</svg>
